<?xml version="1.0" encoding="UTF-8"?>
<svg id="Lager_2" data-name="Lager 2" xmlns="http://www.w3.org/2000/svg" viewBox="0 0 417.93 71.28" width="225" height="70">
  <defs>
    <style>
      .cls-1 {
        fill: #692858;
      }
    </style>
  </defs>
  <g id="Lager_1-2" data-name="Lager 1">
    <path class="cls-1" d="m295.23,27.2c-2.43,0-4.57,2.11-5.71,2.95-2.43,2.21-7,6.54-11.86,13.39-.58.85-1.14.85-1,0,1-5.06,1.86-8.96,2.15-11.81.28-1.69.28-4.53-1.86-4.53l-9,10.02c2.14-.74,2.42.32,1.85,4.12-.23,1.51-.5,3.08-.8,4.7-.03.02-.07.03-.1.05-5.32,4.37-10.7,8.66-16.07,12.94-.01.02-.02.03-.02.03-3.27,2.37-8.51,5.06-12.14,5.06-5.28,0-8.42-3.05-8.28-11.28,0-1.16.14-2.11.14-2.85.14-1.16.43-1.26,1-1.48,4.71-1.48,10-3.16,14.86-5.48,4.14-1.9,9.43-5.06,9.57-9.49,0-3.91-3.28-6.33-6.56-6.33s-11.15,3.48-15.43,6.54c-.8.54-1.96,1.43-3.25,2.71,0,0-1.25,1-4.27,1.53-3.23.58-4.94-.14-5.75-.28-1.47-.44-2.82-1.38-2.85-1.49.06-.27.2-.99.2-.99,0,0,.34-1.73.34-2.55.15-3.06-1.86-5.48-4.71-5.48-3.29,0-5.29,2.53-5.71,4.01-.28.84.15,1.16.57,1.58.86.74,1.85,2.11,1.85,5.17,0,6.12-5,14.03-14,21.84-1.29,1.27-1.71,1.27-1.71-.32,0-4.75-.14-10.55-.43-16.66-.43-7.91-2-15.61-6.28-15.61l-5.14,6.96c1.87,0,2.74,2.89,3.55,8.79-6.76,6.5-14.26,11.99-21.9,17.46-1.14.6-2.04.96-2.5.96-1.14,0-1-3.37-.14-8.23,2.86-15.3,6.43-33.12,11.71-50.31l-11.57,1.9c1.86.11,2.71.32,1.29,6.65-.88,3.98-1.78,7.89-2.66,11.77-.5.84-3.49,4.68-3.49,4.68,0,0-2.43,2.66-3.99,3.96-2.27,1.89-4.38,2.82-4.8,3.05-1.41.76-4.31.75-4.31.75-.27-.03-.55-.08-.82-.14-1.08-4.36-4.09-8.25-10.78-8.25-3.72,0-9,2.42-13.86,5.27-10.57,6.43-14,16.98-14.14,24.47,0,.66.07,1.71.13,2.32l-1.2,1.39-2.16,1.94c-2.22,1.91-4.22,3.02-4.35,3.08-.41.17-.77.27-1.06.31-.12,0-.23.02-.35.02-3.86,0-7.14-4.53-9-7.16-2.71-3.91-4.86-8.33-6-10.03-.57-1.16-1.29-2.1-1.86-2.84-.57-.63-.57-1.16,1.14-2,3.43-2.11,11-7.07,13-8.54,1.71-1.37,3.86-3.27,3.86-4.95,0-1.27-.72-3.37-3.15-3.37-1,0-1.71.21-3,.95-1.43.63-2.71,1.58-3.85,2.43-.86.62-1.15,1.37-1,2.42.14,1.05-.72,4.11-4.15,6.96-3.29,2.74-6.85,4.85-10.13,6.22-1.58.53-1.72.32-1.44-1.15,2.43-10.55,8-37.34,9.14-40.93l-11,1.69c1.86-.21,2,.53,1.29,4.85-1.86,10.24-6.86,34.39-10,45.78-.86,3.38-2,7.49-3.14,12.24-.43,1.48-.43,2.31.57,2.31.86,0,4.43-1.68,5.28-2.21,1-.74,2-1.7,2.72-3.59,1.14-3.27,2.14-7.28,2.71-9.7.43-1.89.85-3.9,1.29-5.8.29-1.37.43-1.69,1.29-1.58,1.43.21,2.57,1.16,4.43,5.16,2,4.02,4.71,9.07,6.85,12.23,3.01,4.11,6,5.48,8.72,5.48,2.04,0,4.82-.75,7.88-3.02,2.74-1.61,5.15-3.49,7.27-5.71,1.56,5.16,5.56,8.11,10.84,8.11,3.43,0,9.29-2.32,13.86-5.17,9.28-5.9,13.86-16.98,13.86-24.79.02-.68,0-1.38-.06-2.09,5.69.45,11.34-3.85,15.53-8.73-2.3,10.09-4.54,19.94-6.61,29.91-1.43,6.44-.57,11.07,1.43,11.07,1.08,0,6.54-3.38,12.51-8.68,7.03-5.03,13.93-10.1,20.23-15.98.74,7.68.22,17.25-.18,22.68,0,1.04.15,1.99,1.29,1.99.71,0,2.29-1.15,4-2.63,1.43-1.04,2.71-2.32,4.71-4.44,9.53-9.82,17.23-18.21,20.37-24.89,3.12,1.99,6.6,2.41,10.59,1.8-2.85,4.09-5.46,10.09-5.54,18.25,0,5.9,2.71,11.7,9.57,11.7,6.09,0,15.93-5.55,21.22-9.97,4.57-3.64,9.11-7.29,13.63-10.98-1.11,5.56-2.59,11.85-4.57,19.26-.43,1.48-.28,2.31.57,2.31.99,0,4.42-1.68,5.28-2.31.86-.63,2-1.59,2.57-3.48,1-3.27,1.71-7.28,2.29-9.7.57-2.32,1.43-4.96,3.14-7.91,4.72-7.38,9.14-11.18,11.57-11.18.99,0,1.71.31,2.14.74.43.32,1,.95,1.71.95s2-.95,3.86-3.06c1.43-1.58,2.72-3.48,2.72-4.22.14-.95-.72-3.48-4.43-3.48Zm-61.71,17.08c.86-4,2.86-7.49,4.43-8.86,1.57-1.58,4.29-3.27,6.57-3.27,3.57,0,5.14,2.64,5,5.06,0,1.16-.87,2.64-2.57,3.8-2.72,1.69-6.58,3.27-12.57,4.43-1,.21-1-.31-.86-1.16Zm-96.7-1.79c0,6.23-1.57,16.25-6.57,20.68-1.57,1.48-4.14,2.41-6.14,2.41-4.86,0-8.72-3.05-8.72-11.48.15-9.92,3.29-16.67,6.72-19.73,2-1.8,3.72-2.53,6.29-2.53,7,0,8.57,5.48,8.43,10.65ZM56.77,2.86c-2.2-1.76-6.88-2.86-12.4-2.86-6.25,0-13.14,1.61-19.75,5.95-6.98,4.47-9.74,9.5-9.64,15.47.12,6.8,5.6,11.55,14.78,15.62,6.98,2.99,15.95,6.63,15.95,15.32s-6.21,13.72-17.79,13.72c-8.63,0-16.33-3.55-18.55-8.81-.7-1.64-1.29-3.26-1.11-4.2.37-.82-1.1-.96-2.02,0-.73.95-2.76,3.11-4.22,4.74-1.29,1.08-2.03,2.17-2.03,3.4,0,2.03,1.66,4.34,4.41,6.1,3.31,2.3,10.26,3.98,17.24,3.98,6.61,0,12.91-2,19.16-5.12,7.9-4.06,15.22-9.59,15.11-17.61-.12-8.45-9.73-14.2-16.71-17.31-8.08-3.53-15.36-7.54-15.36-15.27,0-7.19,6.29-11.44,13.64-11.34,9.58.13,13.96,3.66,12.86,8.54-.37,1.76,1.65,2.04,2.75.82,1.84-1.9,2.76-2.71,4.23-4.21,1.1-1.09,1.65-2.03,1.65-2.99,0-1.08-.55-2.58-2.21-3.94Zm360.11,25.92c-.71.11-3,.11-5.43.11h-7.43c-.57,0-.86,0-.71-.74.57-2.63,2.43-6.96,3.99-9.6.57-.63-.41-.84-1.43-.31-1.71.95-5.29,3.16-6.43,4.32-.86.95-1.86,2-3.28,5.28-.29.95-.71,1.16-1.43,1.27-.71.1-1.71.31-3,.52-1.86.42-5.57,1.69-6.43,2.32-1.14.84-1,1.37.29,1.37h7.14c1.43,0,1.43.21,1.13,1.05-.95,3.44-2.05,7.65-3.08,11.8-1.84,1.84-4.03,3.47-5.98,5.12-3.02,2.58-6.1,5.11-9.27,7.52,0,.01-.01.01-.01.03l-1.47,1.07c-3.25,2.11-7.69,4.2-10.89,4.2-5.28,0-8.43-3.05-8.29-11.28,0-1.16.14-2.11.14-2.85.14-1.16.43-1.26,1-1.48,4.72-1.48,10-3.16,14.86-5.48,4.14-1.9,9.43-5.06,9.57-9.49,0-3.91-3.29-6.33-6.57-6.33s-11.14,3.48-15.42,6.54c-3.15,2.1-11.84,9.68-12.01,24.71,0,0-.25.77-3.2,3.52-1.93,1.81-5.38,3.94-5.38,3.94-.16.03-.26.06-.42.09-.1,0-.19,0-.29,0-3.86,0-7.14-4.53-9-7.16-2.72-3.91-4.86-8.33-6-10.03-.57-1.16-1.29-2.1-1.86-2.84-.57-.63-.57-1.16,1.15-2,3.43-2.11,11-7.07,13-8.54,1.72-1.37,3.86-3.27,3.86-4.95,0-1.27-.71-3.37-3.14-3.37-1,0-1.71.21-3,.95-1.43.63-2.71,1.58-3.86,2.43-.86.62-1.14,1.37-1,2.42.14,1.05-.71,4.11-4.14,6.96-3.28,2.74-6.86,4.85-10.14,6.22-1.58.53-1.72.32-1.43-1.15,2.43-10.55,8-37.34,9.14-40.93l-11,1.69c1.86-.21,2,.53,1.29,4.85-1.85,10.24-6.86,34.39-10,45.78-.86,3.38-2,7.49-3.14,12.24-.43,1.48-.43,2.31.56,2.31.87,0,4.43-1.68,5.3-2.21,1-.74,2-1.7,2.71-3.59,1.14-3.27,2.15-7.28,2.72-9.7.43-1.89.86-3.9,1.28-5.8.28-1.37.43-1.69,1.29-1.58,1.43.21,2.57,1.16,4.43,5.16,2,4.02,4.71,9.07,6.86,12.23,3,4.11,6,5.48,8.71,5.48,2.17,0,5.14-.83,8.41-3.42,2.47-1.59,4.65-3.46,6.61-5.61.87,4.59,3.71,8.4,9.27,8.4,6.32,0,16.65-5.96,21.79-10.45,2.85-2.2,5.64-4.49,8.39-6.82,1.2-1.02,2.45-2.02,3.68-3.05-.9,3.8-1.68,7.35-2.16,10-1.14,5.68-.71,10.54,2.29,10.54,2.43,0,11-6.01,17-12.23.42-.42-.43-1.16-1.15-.73-2,1.47-6.57,4.84-8.57,4.84-1.28,0-1.43-2.32-.58-7.69.72-4.54,2.72-14.24,4.86-20.46.28-.63.57-.84,1.29-.84,1.13,0,2.7-.11,4-.21.98,0,3.28-.43,4.7-.85,2.72-.84,5-2.32,5.72-2.74,1-.53.71-.95-.43-.74Zm-60.85,15.5c.86-4,2.86-7.49,4.43-8.86,1.58-1.58,4.28-3.27,6.57-3.27,3.57,0,5.13,2.64,5,5.06,0,1.16-.86,2.64-2.57,3.8-2.72,1.69-6.57,3.27-12.57,4.43-1,.21-1-.31-.86-1.16Z"/>
  </g>
</svg>